<svg width="1440" height="1024" viewBox="0 0 1440 1024" fill="none" xmlns="http://www.w3.org/2000/svg">
<g clip-path="url(#clip0)">
<rect width="1440" height="1024" fill="#13033F"/>
<path d="M1455.61 840.236C1460.54 841.607 1464.36 842.683 1467 843.431V1052.92H-15.8595H-19.6883L-21.301 1056.39L-21.3012 1056.39L-21.3028 1056.39L-21.3122 1056.41L-21.3537 1056.5C-21.3914 1056.58 -21.449 1056.71 -21.5254 1056.87C-21.6783 1057.19 -21.9065 1057.67 -22.2022 1058.28C-22.794 1059.5 -23.6546 1061.25 -24.7215 1063.34C-26.8616 1067.52 -29.8037 1073.01 -33.0504 1078.34C-36.3399 1083.74 -39.7645 1088.66 -42.84 1091.9C-44.0688 1093.2 -45.0674 1094.04 -45.8118 1094.53C-45.8524 1094.44 -45.8947 1094.34 -45.9386 1094.23C-46.5683 1092.68 -47.2044 1090.04 -47.5979 1085.84C-48.381 1077.49 -48.0929 1064.33 -46.0939 1044.65C-42.1048 1005.38 -31.4328 941.29 -9.98993 840.147C0.321655 791.509 30.3732 754.843 75.8181 727.845C121.417 700.755 182.366 683.518 253.764 674.084C396.547 655.218 579.326 667.774 759.92 693.052C940.409 718.315 1118.27 756.219 1251.04 787.818C1317.42 803.615 1372.51 817.832 1411 828.098C1430.24 833.231 1445.34 837.376 1455.61 840.236ZM-46.7357 1095.02C-46.7356 1095.02 -46.7301 1095.02 -46.7196 1095.02C-46.7305 1095.02 -46.7358 1095.02 -46.7357 1095.02ZM-45.3083 1095.42C-45.299 1095.43 -45.2946 1095.43 -45.2947 1095.43C-45.2948 1095.43 -45.2994 1095.43 -45.3083 1095.42Z" fill="#FFCBCB" stroke="#FFE7E7" stroke-width="12"/>
<g filter="url(#filter0_d)">
<path d="M-15.8595 879.819C69.9567 538.227 1473 879.819 1473 879.819V1065.49H-15.8595C-15.8595 1065.49 -101.676 1221.41 -15.8595 879.819Z" fill="#FFCBCB"/>
<path d="M1455.85 881.907C1460.63 883.029 1464.37 883.918 1467 884.547V1059.49H-15.8595H-19.4059L-21.1155 1062.59L-21.1159 1062.59L-21.117 1062.6L-21.1257 1062.61L-21.166 1062.69C-21.2029 1062.75 -21.2596 1062.85 -21.3351 1062.99C-21.4861 1063.26 -21.7124 1063.66 -22.0061 1064.17C-22.5937 1065.19 -23.4495 1066.66 -24.5109 1068.41C-26.6409 1071.93 -29.5662 1076.54 -32.791 1081C-36.0597 1085.52 -39.4452 1089.63 -42.475 1092.33C-43.9908 1093.67 -45.171 1094.45 -45.9836 1094.81C-46.0174 1094.74 -46.0533 1094.67 -46.0912 1094.59C-46.6216 1093.49 -47.2264 1091.45 -47.6084 1088.02C-48.3694 1081.17 -48.1004 1070.22 -46.1062 1053.66C-42.1302 1020.62 -31.4794 966.619 -10.0403 881.28C0.12508 840.817 29.8471 809.967 75.4426 787.108C121.116 764.21 182.166 749.642 253.643 741.673C396.553 725.738 579.432 736.346 760.047 757.68C940.574 779.004 1118.47 810.996 1251.25 837.665C1317.64 850.998 1372.73 862.997 1411.23 871.661C1430.47 875.994 1445.57 879.492 1455.85 881.907ZM-46.5609 1095C-46.5607 1095 -46.5533 1095 -46.5393 1095C-46.554 1095 -46.561 1095 -46.5609 1095ZM-45.6691 1095.3C-45.6542 1095.31 -45.6471 1095.32 -45.6473 1095.32C-45.6475 1095.32 -45.655 1095.31 -45.6691 1095.3Z" stroke="#FFE7E7" stroke-width="12"/>
</g>
<g filter="url(#filter1_d)">
<path d="M-15.8595 930.815C69.9567 667.982 1473 930.815 1473 930.815V1073.68H-15.8595C-15.8595 1073.68 -101.676 1193.65 -15.8595 930.815Z" fill="#FFCBCB"/>
<path d="M1456.16 933.832C1460.75 934.662 1464.39 935.326 1467 935.807V1067.68H-15.8595H-18.9446L-20.7386 1070.18L-20.7395 1070.18L-20.7473 1070.2L-20.7855 1070.25C-20.8035 1070.27 -20.8267 1070.31 -20.8548 1070.34C-20.882 1070.38 -20.9138 1070.43 -20.9502 1070.48C-21.0983 1070.68 -21.3214 1070.98 -21.6117 1071.37C-22.1926 1072.15 -23.0406 1073.27 -24.0933 1074.61C-26.2069 1077.29 -29.1073 1080.81 -32.3015 1084.21C-35.5368 1087.65 -38.8802 1090.77 -41.8761 1092.82C-43.3714 1093.85 -44.5874 1094.47 -45.5024 1094.78C-45.9023 1094.92 -46.1746 1094.97 -46.3408 1094.99C-46.6403 1094.59 -47.2273 1093.47 -47.6332 1090.66C-48.3417 1085.76 -48.1185 1077.62 -46.1353 1064.95C-42.1898 1039.73 -31.5876 998.317 -10.1558 932.677C-0.268143 902.394 28.944 878.683 74.913 860.951C120.724 843.279 181.925 832.05 253.491 825.91C396.559 813.636 579.565 821.81 760.208 838.228C940.784 854.639 1118.71 879.261 1251.52 899.783C1317.91 910.044 1373.02 919.278 1411.52 925.947C1430.77 929.281 1445.87 931.973 1456.16 933.832ZM-46.1496 1095.18C-46.1521 1095.18 -46.185 1095.16 -46.2404 1095.11C-46.1747 1095.14 -46.147 1095.17 -46.1496 1095.18Z" stroke="#FFE7E7" stroke-width="12"/>
</g>
<g filter="url(#filter2_d)">
<path d="M-15.8595 970.544C69.9567 769.069 1473 970.544 1473 970.544V1080.05H-15.8595C-15.8595 1080.05 -101.676 1172.02 -15.8595 970.544Z" fill="#FFCBCB"/>
<path d="M1456.4 974.274C1460.85 974.891 1464.41 975.389 1467 975.754V1074.05H-15.8595H-18.4672L-20.2448 1075.96L-20.2454 1075.96L-20.2462 1075.96L-20.2522 1075.97L-20.2885 1076.01C-20.3227 1076.04 -20.3766 1076.1 -20.4493 1076.18C-20.5947 1076.33 -20.815 1076.56 -21.1024 1076.85C-21.6775 1077.44 -22.519 1078.3 -23.5645 1079.31C-25.6642 1081.36 -28.5468 1084.04 -31.7219 1086.63C-34.9313 1089.25 -38.2641 1091.64 -41.2748 1093.22C-44.554 1094.94 -46.3028 1095.08 -46.8387 1094.97C-46.8392 1094.97 -46.8397 1094.97 -46.8401 1094.97C-46.8421 1094.97 -46.845 1094.97 -46.849 1094.96C-46.9689 1094.81 -47.377 1094.21 -47.6754 1092.62C-48.2944 1089.34 -48.1498 1083.48 -46.1844 1073.85C-42.2884 1054.76 -31.763 1023.19 -10.3394 972.896C-5.59949 961.768 3.8823 951.581 18.237 942.396C32.5878 933.214 51.482 925.246 74.4549 918.453C120.408 904.865 181.743 896.245 253.372 891.534C396.565 882.117 579.668 888.39 760.334 900.977C940.948 913.56 1118.91 932.437 1251.73 948.17C1318.13 956.037 1373.25 963.116 1411.76 968.229C1431.01 970.785 1446.11 972.849 1456.4 974.274Z" stroke="#FFE7E7" stroke-width="12"/>
</g>
<g filter="url(#filter3_d)">
<path d="M282.159 257.745C449.554 157.381 626.901 511.098 763.913 369.344C835.653 295.123 776.548 188.986 848.31 114.787C923.367 37.1812 1001.66 19.6585 1106.74 30.5967C1244.67 44.9544 1407.78 108.406 1390.42 251.534C1377.5 358.107 1263.06 356.642 1195.65 438.237C1089.33 566.927 1140.8 760.58 986.044 813.932C883.475 849.293 817.461 749.054 712.353 774.996C603.98 801.745 589.893 937.31 478.876 945.832C354.724 955.362 280.678 878.855 206.124 775.533C128.476 667.921 84.7861 568.236 127.058 440.653C156.868 350.68 202.838 305.303 282.159 257.745Z" fill="#E9E0FF"/>
<path d="M282.159 257.745C449.554 157.381 626.901 511.098 763.913 369.344C835.653 295.123 776.548 188.986 848.31 114.787C923.367 37.1812 1001.66 19.6585 1106.74 30.5967C1244.67 44.9544 1407.78 108.406 1390.42 251.534C1377.5 358.107 1263.06 356.642 1195.65 438.237C1089.33 566.927 1140.8 760.58 986.044 813.932C883.475 849.293 817.461 749.054 712.353 774.996C603.98 801.745 589.893 937.31 478.876 945.832C354.724 955.362 280.678 878.855 206.124 775.533C128.476 667.921 84.7861 568.236 127.058 440.653C156.868 350.68 202.838 305.303 282.159 257.745Z" stroke="black"/>
</g>
<g filter="url(#filter4_d)">
<path d="M332.103 282.377C481.476 192.818 639.728 508.453 761.989 381.961C826.005 315.73 773.264 221.021 837.299 154.811C904.276 85.5602 974.141 69.924 1067.91 79.6846C1190.98 92.4965 1336.53 149.116 1321.05 276.834C1309.52 371.933 1207.4 370.626 1147.24 443.436C1052.37 558.271 1098.3 731.074 960.204 778.682C868.679 810.236 809.771 720.789 715.98 743.939C619.275 767.808 606.705 888.777 507.64 896.381C396.855 904.885 330.782 836.616 264.255 744.417C194.966 648.392 155.98 559.439 193.7 445.592C220.301 365.307 261.322 324.815 332.103 282.377Z" fill="#E9E0FF"/>
<path d="M332.103 282.377C481.476 192.818 639.728 508.453 761.989 381.961C826.005 315.73 773.264 221.021 837.299 154.811C904.276 85.5602 974.141 69.924 1067.91 79.6846C1190.98 92.4965 1336.53 149.116 1321.05 276.834C1309.52 371.933 1207.4 370.626 1147.24 443.436C1052.37 558.271 1098.3 731.074 960.204 778.682C868.679 810.236 809.771 720.789 715.98 743.939C619.275 767.808 606.705 888.777 507.64 896.381C396.855 904.885 330.782 836.616 264.255 744.417C194.966 648.392 155.98 559.439 193.7 445.592C220.301 365.307 261.322 324.815 332.103 282.377Z" stroke="black"/>
</g>
<g filter="url(#filter5_d)">
<path d="M399.563 315.648C524.592 240.685 657.054 504.88 759.391 399.003C812.974 343.566 768.828 264.291 822.427 208.871C878.489 150.906 936.967 137.819 1015.45 145.988C1118.47 156.712 1240.3 204.105 1227.34 311.009C1217.69 390.609 1132.21 389.515 1081.86 450.459C1002.44 546.58 1040.89 691.221 925.302 731.07C848.693 757.481 799.386 682.612 720.88 701.988C639.935 721.967 629.413 823.222 546.493 829.587C453.762 836.705 398.457 779.562 342.772 702.389C284.775 622.013 252.143 547.557 283.716 452.264C305.982 385.062 340.317 351.17 399.563 315.648Z" fill="#E9E0FF"/>
<path d="M399.563 315.648C524.592 240.685 657.054 504.88 759.391 399.003C812.974 343.566 768.828 264.291 822.427 208.871C878.489 150.906 936.967 137.819 1015.45 145.988C1118.47 156.712 1240.3 204.105 1227.34 311.009C1217.69 390.609 1132.21 389.515 1081.86 450.459C1002.44 546.58 1040.89 691.221 925.302 731.07C848.693 757.481 799.386 682.612 720.88 701.988C639.935 721.967 629.413 823.222 546.493 829.587C453.762 836.705 398.457 779.562 342.772 702.389C284.775 622.013 252.143 547.557 283.716 452.264C305.982 385.062 340.317 351.17 399.563 315.648Z" stroke="black"/>
</g>
<g filter="url(#filter6_d)">
<path d="M617.053 228.372C738.43 243.164 699.228 483.536 820.315 466.53C883.715 457.626 892.496 383.255 955.899 374.371C1022.21 365.079 1068.25 386.367 1117.48 431.767C1182.09 491.359 1241.55 584.529 1180.55 647.821C1135.14 694.948 1077.72 650.608 1013.82 664.762C913.042 687.086 868.476 801.293 770.648 768.357C705.809 746.528 708.939 672.403 646.249 645.006C581.612 616.757 525.033 677.601 465.705 639.442C399.357 596.768 389.765 531.174 389.695 452.288C389.622 370.127 403.856 304.783 471.796 258.582C519.708 226.001 559.539 221.362 617.053 228.372Z" fill="#FFCBCB"/>
<path d="M617.053 228.372C738.43 243.164 699.228 483.536 820.315 466.53C883.715 457.626 892.496 383.255 955.899 374.371C1022.21 365.079 1068.25 386.367 1117.48 431.767C1182.09 491.359 1241.55 584.529 1180.55 647.821C1135.14 694.948 1077.72 650.608 1013.82 664.762C913.042 687.086 868.476 801.293 770.648 768.357C705.809 746.528 708.939 672.403 646.249 645.006C581.612 616.757 525.033 677.601 465.705 639.442C399.357 596.768 389.765 531.174 389.695 452.288C389.622 370.127 403.856 304.783 471.796 258.582C519.708 226.001 559.539 221.362 617.053 228.372Z" stroke="black"/>
</g>
<g filter="url(#filter7_d)">
<path d="M645.367 282.314C744.055 294.342 712.181 489.782 810.634 475.956C862.183 468.716 869.322 408.246 920.874 401.023C974.794 393.468 1012.23 410.776 1052.25 447.69C1104.78 496.143 1153.13 571.898 1103.54 623.359C1066.61 661.677 1019.93 625.625 967.971 637.133C886.028 655.284 849.793 748.144 770.251 721.364C717.532 703.615 720.077 643.346 669.105 621.07C616.55 598.102 570.547 647.572 522.308 616.546C468.363 581.849 460.563 528.516 460.506 464.375C460.447 397.572 472.02 344.442 527.261 306.878C566.217 280.387 598.603 276.615 645.367 282.314Z" fill="#FFCBCB"/>
<path d="M645.367 282.314C744.055 294.342 712.181 489.782 810.634 475.956C862.183 468.716 869.322 408.246 920.874 401.023C974.794 393.468 1012.23 410.776 1052.25 447.69C1104.78 496.143 1153.13 571.898 1103.54 623.359C1066.61 661.677 1019.93 625.625 967.971 637.133C886.028 655.284 849.793 748.144 770.251 721.364C717.532 703.615 720.077 643.346 669.105 621.07C616.55 598.102 570.547 647.572 522.308 616.546C468.363 581.849 460.563 528.516 460.506 464.375C460.447 397.572 472.02 344.442 527.261 306.878C566.217 280.387 598.603 276.615 645.367 282.314Z" stroke="#B76E79"/>
</g>
<g filter="url(#filter8_d)">
<path d="M670.722 398.546C729.141 406.698 712.492 520.954 770.484 513.941C800.849 510.27 804.392 474.888 834.758 471.226C866.519 467.396 888.821 477.963 912.869 500.055C944.435 529.054 973.83 574.017 945.114 603.643C923.732 625.702 895.759 604.041 865.202 610.211C817.008 619.943 796.641 673.994 749.366 657.405C718.032 646.41 718.864 611.095 688.512 597.464C657.217 583.41 630.599 611.909 601.763 593.178C569.517 572.23 564.317 540.867 563.569 503.253C562.791 464.078 569.034 433.05 601.242 411.636C623.954 396.535 643.039 394.684 670.722 398.546Z" fill="#FFCBCB"/>
<path d="M670.722 398.546C729.141 406.698 712.492 520.954 770.484 513.941C800.849 510.27 804.392 474.888 834.758 471.226C866.519 467.396 888.821 477.963 912.869 500.055C944.435 529.054 973.83 574.017 945.114 603.643C923.732 625.702 895.759 604.041 865.202 610.211C817.008 619.943 796.641 673.994 749.366 657.405C718.032 646.41 718.864 611.095 688.512 597.464C657.217 583.41 630.599 611.909 601.763 593.178C569.517 572.23 564.317 540.867 563.569 503.253C562.791 464.078 569.034 433.05 601.242 411.636C623.954 396.535 643.039 394.684 670.722 398.546Z" stroke="black"/>
</g>
<g filter="url(#filter9_d)">
<ellipse cx="161.5" cy="321" rx="73.5" ry="74" fill="#FFCBCB"/>
</g>
<g filter="url(#filter10_d)">
<ellipse cx="161.5" cy="321" rx="48.5" ry="49" fill="#FFCBCB"/>
</g>
<g filter="url(#filter11_d)">
<ellipse cx="158.5" cy="320" rx="30.5" ry="31" fill="#FFCBCB"/>
</g>
<g filter="url(#filter12_d)">
<ellipse cx="1265.5" cy="320" rx="72.5" ry="73" fill="#FFCBCB"/>
</g>
<g filter="url(#filter13_d)">
<ellipse cx="1265.5" cy="320" rx="51.5" ry="52" fill="#FFCBCB"/>
</g>
<g filter="url(#filter14_d)">
<ellipse cx="1265.5" cy="320" rx="38.5" ry="39" fill="#FFCBCB"/>
</g>
<g filter="url(#filter15_d)">
<ellipse cx="673.5" cy="122" rx="46.5" ry="47" fill="#FFCBCB"/>
</g>
<g filter="url(#filter16_d)">
<ellipse cx="673.5" cy="122" rx="28.5" ry="29" fill="#FFCBCB"/>
</g>
<g filter="url(#filter17_d)">
<ellipse cx="262.5" cy="50" rx="27.5" ry="28" fill="#FFCBCB"/>
</g>
<g filter="url(#filter18_d)">
<ellipse cx="262.5" cy="50" rx="13.5" ry="14" fill="#FFCBCB"/>
</g>
<g filter="url(#filter19_d)">
<ellipse cx="1086" cy="732.5" rx="33" ry="33.5" fill="#FFCBCB"/>
</g>
<g filter="url(#filter20_d)">
<ellipse cx="1086" cy="732.5" rx="16" ry="16.5" fill="#FFCBCB"/>
</g>
<g filter="url(#filter21_d)">
<ellipse cx="74.5" cy="96" rx="13.5" ry="14" fill="#FFCBCB"/>
</g>
<g filter="url(#filter22_d)">
<ellipse cx="283" cy="161.5" rx="7" ry="7.5" fill="#FFCBCB"/>
</g>
<g filter="url(#filter23_d)">
<ellipse cx="1394" cy="778.5" rx="7" ry="7.5" fill="#FFCBCB"/>
</g>
<g filter="url(#filter24_d)">
<ellipse cx="819" cy="36.5" rx="7" ry="7.5" fill="#FFCBCB"/>
</g>
<g filter="url(#filter25_d)">
<ellipse cx="1410" cy="344.5" rx="7" ry="7.5" fill="#FFCBCB"/>
</g>
<g filter="url(#filter26_d)">
<ellipse cx="1242" cy="504.5" rx="7" ry="7.5" fill="#FFCBCB"/>
</g>
<g filter="url(#filter27_d)">
<ellipse cx="83" cy="469.5" rx="7" ry="7.5" fill="#FFCBCB"/>
</g>
<g filter="url(#filter28_d)">
<ellipse cx="1400.5" cy="42" rx="13.5" ry="14" fill="#FFCBCB"/>
</g>
<g filter="url(#filter29_d)">
<ellipse cx="1303.5" cy="659" rx="13.5" ry="14" fill="#FFCBCB"/>
</g>
<g filter="url(#filter30_d)">
<ellipse cx="58.5" cy="673" rx="13.5" ry="14" fill="#FFCBCB"/>
</g>
<g filter="url(#filter31_d)">
<ellipse cx="446.5" cy="210" rx="13.5" ry="14" fill="#FFCBCB"/>
</g>
</g>
<defs>
<filter id="filter0_d" x="-144" y="642" width="1707" height="553" filterUnits="userSpaceOnUse" color-interpolation-filters="sRGB">
<feFlood flood-opacity="0" result="BackgroundImageFix"/>
<feColorMatrix in="SourceAlpha" type="matrix" values="0 0 0 0 0 0 0 0 0 0 0 0 0 0 0 0 0 0 127 0"/>
<feOffset dy="4"/>
<feGaussianBlur stdDeviation="45"/>
<feColorMatrix type="matrix" values="0 0 0 0 0.717647 0 0 0 0 0.431373 0 0 0 0 0.47451 0 0 0 1 0"/>
<feBlend mode="normal" in2="BackgroundImageFix" result="effect1_dropShadow"/>
<feBlend mode="normal" in="SourceGraphic" in2="effect1_dropShadow" result="shape"/>
</filter>
<filter id="filter1_d" x="-144" y="728" width="1707" height="467" filterUnits="userSpaceOnUse" color-interpolation-filters="sRGB">
<feFlood flood-opacity="0" result="BackgroundImageFix"/>
<feColorMatrix in="SourceAlpha" type="matrix" values="0 0 0 0 0 0 0 0 0 0 0 0 0 0 0 0 0 0 127 0"/>
<feOffset dy="4"/>
<feGaussianBlur stdDeviation="45"/>
<feColorMatrix type="matrix" values="0 0 0 0 0.717647 0 0 0 0 0.431373 0 0 0 0 0.47451 0 0 0 1 0"/>
<feBlend mode="normal" in2="BackgroundImageFix" result="effect1_dropShadow"/>
<feBlend mode="normal" in="SourceGraphic" in2="effect1_dropShadow" result="shape"/>
</filter>
<filter id="filter2_d" x="-144" y="795" width="1707" height="400" filterUnits="userSpaceOnUse" color-interpolation-filters="sRGB">
<feFlood flood-opacity="0" result="BackgroundImageFix"/>
<feColorMatrix in="SourceAlpha" type="matrix" values="0 0 0 0 0 0 0 0 0 0 0 0 0 0 0 0 0 0 127 0"/>
<feOffset dy="4"/>
<feGaussianBlur stdDeviation="45"/>
<feColorMatrix type="matrix" values="0 0 0 0 0.717647 0 0 0 0 0.431373 0 0 0 0 0.47451 0 0 0 1 0"/>
<feBlend mode="normal" in2="BackgroundImageFix" result="effect1_dropShadow"/>
<feBlend mode="normal" in="SourceGraphic" in2="effect1_dropShadow" result="shape"/>
</filter>
<filter id="filter3_d" x="51.0005" y="-54" width="1390.09" height="1089.06" filterUnits="userSpaceOnUse" color-interpolation-filters="sRGB">
<feFlood flood-opacity="0" result="BackgroundImageFix"/>
<feColorMatrix in="SourceAlpha" type="matrix" values="0 0 0 0 0 0 0 0 0 0 0 0 0 0 0 0 0 0 127 0"/>
<feOffset dy="4"/>
<feGaussianBlur stdDeviation="20"/>
<feColorMatrix type="matrix" values="0 0 0 0 0.427765 0 0 0 0 0.381689 0 0 0 0 0.554475 0 0 0 1 0"/>
<feBlend mode="normal" in2="BackgroundImageFix" result="effect1_dropShadow"/>
<feBlend mode="normal" in="SourceGraphic" in2="effect1_dropShadow" result="shape"/>
</filter>
<filter id="filter4_d" x="86.5254" y="-34.6799" width="1319.04" height="1050.42" filterUnits="userSpaceOnUse" color-interpolation-filters="sRGB">
<feFlood flood-opacity="0" result="BackgroundImageFix"/>
<feColorMatrix in="SourceAlpha" type="matrix" values="0 0 0 0 0 0 0 0 0 0 0 0 0 0 0 0 0 0 127 0"/>
<feOffset dy="4"/>
<feGaussianBlur stdDeviation="37.5"/>
<feColorMatrix type="matrix" values="0 0 0 0 0.427765 0 0 0 0 0.381689 0 0 0 0 0.554475 0 0 0 1 0"/>
<feBlend mode="normal" in2="BackgroundImageFix" result="effect1_dropShadow"/>
<feBlend mode="normal" in="SourceGraphic" in2="effect1_dropShadow" result="shape"/>
</filter>
<filter id="filter5_d" x="181.785" y="38.6911" width="1128.52" height="903.677" filterUnits="userSpaceOnUse" color-interpolation-filters="sRGB">
<feFlood flood-opacity="0" result="BackgroundImageFix"/>
<feColorMatrix in="SourceAlpha" type="matrix" values="0 0 0 0 0 0 0 0 0 0 0 0 0 0 0 0 0 0 127 0"/>
<feOffset dy="4"/>
<feGaussianBlur stdDeviation="37.5"/>
<feColorMatrix type="matrix" values="0 0 0 0 0.427765 0 0 0 0 0.381689 0 0 0 0 0.554475 0 0 0 1 0"/>
<feBlend mode="normal" in2="BackgroundImageFix" result="effect1_dropShadow"/>
<feBlend mode="normal" in="SourceGraphic" in2="effect1_dropShadow" result="shape"/>
</filter>
<filter id="filter6_d" x="262.474" y="35.5899" width="1012.1" height="982.729" filterUnits="userSpaceOnUse" color-interpolation-filters="sRGB">
<feFlood flood-opacity="0" result="BackgroundImageFix"/>
<feColorMatrix in="SourceAlpha" type="matrix" values="0 0 0 0 0 0 0 0 0 0 0 0 0 0 0 0 0 0 127 0"/>
<feOffset dy="10"/>
<feGaussianBlur stdDeviation="6.5"/>
<feColorMatrix type="matrix" values="0 0 0 0 0.717647 0 0 0 0 0.431373 0 0 0 0 0.47451 0 0 0 1 0"/>
<feBlend mode="normal" in2="BackgroundImageFix" result="effect1_dropShadow"/>
<feBlend mode="normal" in="SourceGraphic" in2="effect1_dropShadow" result="shape"/>
</filter>
<filter id="filter7_d" x="337.636" y="102.007" width="861.776" height="837.895" filterUnits="userSpaceOnUse" color-interpolation-filters="sRGB">
<feFlood flood-opacity="0" result="BackgroundImageFix"/>
<feColorMatrix in="SourceAlpha" type="matrix" values="0 0 0 0 0 0 0 0 0 0 0 0 0 0 0 0 0 0 127 0"/>
<feOffset dy="4"/>
<feGaussianBlur stdDeviation="15"/>
<feColorMatrix type="matrix" values="0 0 0 0 0.717647 0 0 0 0 0.431373 0 0 0 0 0.47451 0 0 0 1 0"/>
<feBlend mode="normal" in2="BackgroundImageFix" result="effect1_dropShadow"/>
<feBlend mode="normal" in="SourceGraphic" in2="effect1_dropShadow" result="shape"/>
</filter>
<filter id="filter8_d" x="477" y="280.305" width="538.14" height="522.421" filterUnits="userSpaceOnUse" color-interpolation-filters="sRGB">
<feFlood flood-opacity="0" result="BackgroundImageFix"/>
<feColorMatrix in="SourceAlpha" type="matrix" values="0 0 0 0 0 0 0 0 0 0 0 0 0 0 0 0 0 0 127 0"/>
<feOffset dy="4"/>
<feGaussianBlur stdDeviation="16"/>
<feColorMatrix type="matrix" values="0 0 0 0 0.717647 0 0 0 0 0.431373 0 0 0 0 0.47451 0 0 0 1 0"/>
<feBlend mode="normal" in2="BackgroundImageFix" result="effect1_dropShadow"/>
<feBlend mode="normal" in="SourceGraphic" in2="effect1_dropShadow" result="shape"/>
</filter>
<filter id="filter9_d" x="17" y="176" width="297" height="298" filterUnits="userSpaceOnUse" color-interpolation-filters="sRGB">
<feFlood flood-opacity="0" result="BackgroundImageFix"/>
<feColorMatrix in="SourceAlpha" type="matrix" values="0 0 0 0 0 0 0 0 0 0 0 0 0 0 0 0 0 0 127 0"/>
<feOffset dx="4" dy="4"/>
<feGaussianBlur stdDeviation="37.5"/>
<feColorMatrix type="matrix" values="0 0 0 0 0 0 0 0 0 0 0 0 0 0 0 0 0 0 0.45 0"/>
<feBlend mode="normal" in2="BackgroundImageFix" result="effect1_dropShadow"/>
<feBlend mode="normal" in="SourceGraphic" in2="effect1_dropShadow" result="shape"/>
</filter>
<filter id="filter10_d" x="105" y="264" width="121" height="122" filterUnits="userSpaceOnUse" color-interpolation-filters="sRGB">
<feFlood flood-opacity="0" result="BackgroundImageFix"/>
<feColorMatrix in="SourceAlpha" type="matrix" values="0 0 0 0 0 0 0 0 0 0 0 0 0 0 0 0 0 0 127 0"/>
<feOffset dx="4" dy="4"/>
<feGaussianBlur stdDeviation="6"/>
<feColorMatrix type="matrix" values="0 0 0 0 0.717647 0 0 0 0 0.431373 0 0 0 0 0.47451 0 0 0 1 0"/>
<feBlend mode="normal" in2="BackgroundImageFix" result="effect1_dropShadow"/>
<feBlend mode="normal" in="SourceGraphic" in2="effect1_dropShadow" result="shape"/>
</filter>
<filter id="filter11_d" x="126" y="287" width="73" height="74" filterUnits="userSpaceOnUse" color-interpolation-filters="sRGB">
<feFlood flood-opacity="0" result="BackgroundImageFix"/>
<feColorMatrix in="SourceAlpha" type="matrix" values="0 0 0 0 0 0 0 0 0 0 0 0 0 0 0 0 0 0 127 0"/>
<feOffset dx="4" dy="4"/>
<feGaussianBlur stdDeviation="3"/>
<feColorMatrix type="matrix" values="0 0 0 0 0.717647 0 0 0 0 0.431373 0 0 0 0 0.47451 0 0 0 1 0"/>
<feBlend mode="normal" in2="BackgroundImageFix" result="effect1_dropShadow"/>
<feBlend mode="normal" in="SourceGraphic" in2="effect1_dropShadow" result="shape"/>
</filter>
<filter id="filter12_d" x="1122" y="176" width="295" height="296" filterUnits="userSpaceOnUse" color-interpolation-filters="sRGB">
<feFlood flood-opacity="0" result="BackgroundImageFix"/>
<feColorMatrix in="SourceAlpha" type="matrix" values="0 0 0 0 0 0 0 0 0 0 0 0 0 0 0 0 0 0 127 0"/>
<feOffset dx="4" dy="4"/>
<feGaussianBlur stdDeviation="37.5"/>
<feColorMatrix type="matrix" values="0 0 0 0 0 0 0 0 0 0 0 0 0 0 0 0 0 0 0.45 0"/>
<feBlend mode="normal" in2="BackgroundImageFix" result="effect1_dropShadow"/>
<feBlend mode="normal" in="SourceGraphic" in2="effect1_dropShadow" result="shape"/>
</filter>
<filter id="filter13_d" x="1205" y="259" width="129" height="130" filterUnits="userSpaceOnUse" color-interpolation-filters="sRGB">
<feFlood flood-opacity="0" result="BackgroundImageFix"/>
<feColorMatrix in="SourceAlpha" type="matrix" values="0 0 0 0 0 0 0 0 0 0 0 0 0 0 0 0 0 0 127 0"/>
<feOffset dx="4" dy="4"/>
<feGaussianBlur stdDeviation="6.5"/>
<feColorMatrix type="matrix" values="0 0 0 0 0.717647 0 0 0 0 0.431373 0 0 0 0 0.47451 0 0 0 1 0"/>
<feBlend mode="normal" in2="BackgroundImageFix" result="effect1_dropShadow"/>
<feBlend mode="normal" in="SourceGraphic" in2="effect1_dropShadow" result="shape"/>
</filter>
<filter id="filter14_d" x="1218" y="272" width="103" height="104" filterUnits="userSpaceOnUse" color-interpolation-filters="sRGB">
<feFlood flood-opacity="0" result="BackgroundImageFix"/>
<feColorMatrix in="SourceAlpha" type="matrix" values="0 0 0 0 0 0 0 0 0 0 0 0 0 0 0 0 0 0 127 0"/>
<feOffset dx="4" dy="4"/>
<feGaussianBlur stdDeviation="6.5"/>
<feColorMatrix type="matrix" values="0 0 0 0 0.717647 0 0 0 0 0.431373 0 0 0 0 0.47451 0 0 0 1 0"/>
<feBlend mode="normal" in2="BackgroundImageFix" result="effect1_dropShadow"/>
<feBlend mode="normal" in="SourceGraphic" in2="effect1_dropShadow" result="shape"/>
</filter>
<filter id="filter15_d" x="556" y="4" width="243" height="244" filterUnits="userSpaceOnUse" color-interpolation-filters="sRGB">
<feFlood flood-opacity="0" result="BackgroundImageFix"/>
<feColorMatrix in="SourceAlpha" type="matrix" values="0 0 0 0 0 0 0 0 0 0 0 0 0 0 0 0 0 0 127 0"/>
<feOffset dx="4" dy="4"/>
<feGaussianBlur stdDeviation="37.5"/>
<feColorMatrix type="matrix" values="0 0 0 0 0 0 0 0 0 0 0 0 0 0 0 0 0 0 0.45 0"/>
<feBlend mode="normal" in2="BackgroundImageFix" result="effect1_dropShadow"/>
<feBlend mode="normal" in="SourceGraphic" in2="effect1_dropShadow" result="shape"/>
</filter>
<filter id="filter16_d" x="626" y="84" width="95" height="96" filterUnits="userSpaceOnUse" color-interpolation-filters="sRGB">
<feFlood flood-opacity="0" result="BackgroundImageFix"/>
<feColorMatrix in="SourceAlpha" type="matrix" values="0 0 0 0 0 0 0 0 0 0 0 0 0 0 0 0 0 0 127 0"/>
<feOffset dy="10"/>
<feGaussianBlur stdDeviation="9.5"/>
<feColorMatrix type="matrix" values="0 0 0 0 0.717647 0 0 0 0 0.431373 0 0 0 0 0.47451 0 0 0 1 0"/>
<feBlend mode="normal" in2="BackgroundImageFix" result="effect1_dropShadow"/>
<feBlend mode="normal" in="SourceGraphic" in2="effect1_dropShadow" result="shape"/>
</filter>
<filter id="filter17_d" x="164" y="-49" width="205" height="206" filterUnits="userSpaceOnUse" color-interpolation-filters="sRGB">
<feFlood flood-opacity="0" result="BackgroundImageFix"/>
<feColorMatrix in="SourceAlpha" type="matrix" values="0 0 0 0 0 0 0 0 0 0 0 0 0 0 0 0 0 0 127 0"/>
<feOffset dx="4" dy="4"/>
<feGaussianBlur stdDeviation="37.5"/>
<feColorMatrix type="matrix" values="0 0 0 0 0 0 0 0 0 0 0 0 0 0 0 0 0 0 0.45 0"/>
<feBlend mode="normal" in2="BackgroundImageFix" result="effect1_dropShadow"/>
<feBlend mode="normal" in="SourceGraphic" in2="effect1_dropShadow" result="shape"/>
</filter>
<filter id="filter18_d" x="233" y="30" width="59" height="60" filterUnits="userSpaceOnUse" color-interpolation-filters="sRGB">
<feFlood flood-opacity="0" result="BackgroundImageFix"/>
<feColorMatrix in="SourceAlpha" type="matrix" values="0 0 0 0 0 0 0 0 0 0 0 0 0 0 0 0 0 0 127 0"/>
<feOffset dy="10"/>
<feGaussianBlur stdDeviation="8"/>
<feColorMatrix type="matrix" values="0 0 0 0 0.717647 0 0 0 0 0.431373 0 0 0 0 0.47451 0 0 0 1 0"/>
<feBlend mode="normal" in2="BackgroundImageFix" result="effect1_dropShadow"/>
<feBlend mode="normal" in="SourceGraphic" in2="effect1_dropShadow" result="shape"/>
</filter>
<filter id="filter19_d" x="982" y="628" width="216" height="217" filterUnits="userSpaceOnUse" color-interpolation-filters="sRGB">
<feFlood flood-opacity="0" result="BackgroundImageFix"/>
<feColorMatrix in="SourceAlpha" type="matrix" values="0 0 0 0 0 0 0 0 0 0 0 0 0 0 0 0 0 0 127 0"/>
<feOffset dx="4" dy="4"/>
<feGaussianBlur stdDeviation="37.5"/>
<feColorMatrix type="matrix" values="0 0 0 0 0 0 0 0 0 0 0 0 0 0 0 0 0 0 0.45 0"/>
<feBlend mode="normal" in2="BackgroundImageFix" result="effect1_dropShadow"/>
<feBlend mode="normal" in="SourceGraphic" in2="effect1_dropShadow" result="shape"/>
</filter>
<filter id="filter20_d" x="1058" y="704" width="64" height="65" filterUnits="userSpaceOnUse" color-interpolation-filters="sRGB">
<feFlood flood-opacity="0" result="BackgroundImageFix"/>
<feColorMatrix in="SourceAlpha" type="matrix" values="0 0 0 0 0 0 0 0 0 0 0 0 0 0 0 0 0 0 127 0"/>
<feOffset dx="4" dy="4"/>
<feGaussianBlur stdDeviation="8"/>
<feColorMatrix type="matrix" values="0 0 0 0 0.717647 0 0 0 0 0.431373 0 0 0 0 0.47451 0 0 0 1 0"/>
<feBlend mode="normal" in2="BackgroundImageFix" result="effect1_dropShadow"/>
<feBlend mode="normal" in="SourceGraphic" in2="effect1_dropShadow" result="shape"/>
</filter>
<filter id="filter21_d" x="46" y="67" width="65" height="66" filterUnits="userSpaceOnUse" color-interpolation-filters="sRGB">
<feFlood flood-opacity="0" result="BackgroundImageFix"/>
<feColorMatrix in="SourceAlpha" type="matrix" values="0 0 0 0 0 0 0 0 0 0 0 0 0 0 0 0 0 0 127 0"/>
<feOffset dx="4" dy="4"/>
<feGaussianBlur stdDeviation="9.5"/>
<feColorMatrix type="matrix" values="0 0 0 0 0 0 0 0 0 0 0 0 0 0 0 0 0 0 0.45 0"/>
<feBlend mode="normal" in2="BackgroundImageFix" result="effect1_dropShadow"/>
<feBlend mode="normal" in="SourceGraphic" in2="effect1_dropShadow" result="shape"/>
</filter>
<filter id="filter22_d" x="261" y="139" width="52" height="53" filterUnits="userSpaceOnUse" color-interpolation-filters="sRGB">
<feFlood flood-opacity="0" result="BackgroundImageFix"/>
<feColorMatrix in="SourceAlpha" type="matrix" values="0 0 0 0 0 0 0 0 0 0 0 0 0 0 0 0 0 0 127 0"/>
<feOffset dx="4" dy="4"/>
<feGaussianBlur stdDeviation="9.5"/>
<feColorMatrix type="matrix" values="0 0 0 0 0 0 0 0 0 0 0 0 0 0 0 0 0 0 0.45 0"/>
<feBlend mode="normal" in2="BackgroundImageFix" result="effect1_dropShadow"/>
<feBlend mode="normal" in="SourceGraphic" in2="effect1_dropShadow" result="shape"/>
</filter>
<filter id="filter23_d" x="1372" y="756" width="52" height="53" filterUnits="userSpaceOnUse" color-interpolation-filters="sRGB">
<feFlood flood-opacity="0" result="BackgroundImageFix"/>
<feColorMatrix in="SourceAlpha" type="matrix" values="0 0 0 0 0 0 0 0 0 0 0 0 0 0 0 0 0 0 127 0"/>
<feOffset dx="4" dy="4"/>
<feGaussianBlur stdDeviation="9.5"/>
<feColorMatrix type="matrix" values="0 0 0 0 0 0 0 0 0 0 0 0 0 0 0 0 0 0 0.45 0"/>
<feBlend mode="normal" in2="BackgroundImageFix" result="effect1_dropShadow"/>
<feBlend mode="normal" in="SourceGraphic" in2="effect1_dropShadow" result="shape"/>
</filter>
<filter id="filter24_d" x="797" y="14" width="52" height="53" filterUnits="userSpaceOnUse" color-interpolation-filters="sRGB">
<feFlood flood-opacity="0" result="BackgroundImageFix"/>
<feColorMatrix in="SourceAlpha" type="matrix" values="0 0 0 0 0 0 0 0 0 0 0 0 0 0 0 0 0 0 127 0"/>
<feOffset dx="4" dy="4"/>
<feGaussianBlur stdDeviation="9.5"/>
<feColorMatrix type="matrix" values="0 0 0 0 0 0 0 0 0 0 0 0 0 0 0 0 0 0 0.45 0"/>
<feBlend mode="normal" in2="BackgroundImageFix" result="effect1_dropShadow"/>
<feBlend mode="normal" in="SourceGraphic" in2="effect1_dropShadow" result="shape"/>
</filter>
<filter id="filter25_d" x="1388" y="322" width="52" height="53" filterUnits="userSpaceOnUse" color-interpolation-filters="sRGB">
<feFlood flood-opacity="0" result="BackgroundImageFix"/>
<feColorMatrix in="SourceAlpha" type="matrix" values="0 0 0 0 0 0 0 0 0 0 0 0 0 0 0 0 0 0 127 0"/>
<feOffset dx="4" dy="4"/>
<feGaussianBlur stdDeviation="9.5"/>
<feColorMatrix type="matrix" values="0 0 0 0 0 0 0 0 0 0 0 0 0 0 0 0 0 0 0.45 0"/>
<feBlend mode="normal" in2="BackgroundImageFix" result="effect1_dropShadow"/>
<feBlend mode="normal" in="SourceGraphic" in2="effect1_dropShadow" result="shape"/>
</filter>
<filter id="filter26_d" x="1220" y="482" width="52" height="53" filterUnits="userSpaceOnUse" color-interpolation-filters="sRGB">
<feFlood flood-opacity="0" result="BackgroundImageFix"/>
<feColorMatrix in="SourceAlpha" type="matrix" values="0 0 0 0 0 0 0 0 0 0 0 0 0 0 0 0 0 0 127 0"/>
<feOffset dx="4" dy="4"/>
<feGaussianBlur stdDeviation="9.5"/>
<feColorMatrix type="matrix" values="0 0 0 0 0 0 0 0 0 0 0 0 0 0 0 0 0 0 0.45 0"/>
<feBlend mode="normal" in2="BackgroundImageFix" result="effect1_dropShadow"/>
<feBlend mode="normal" in="SourceGraphic" in2="effect1_dropShadow" result="shape"/>
</filter>
<filter id="filter27_d" x="61" y="447" width="52" height="53" filterUnits="userSpaceOnUse" color-interpolation-filters="sRGB">
<feFlood flood-opacity="0" result="BackgroundImageFix"/>
<feColorMatrix in="SourceAlpha" type="matrix" values="0 0 0 0 0 0 0 0 0 0 0 0 0 0 0 0 0 0 127 0"/>
<feOffset dx="4" dy="4"/>
<feGaussianBlur stdDeviation="9.5"/>
<feColorMatrix type="matrix" values="0 0 0 0 0 0 0 0 0 0 0 0 0 0 0 0 0 0 0.45 0"/>
<feBlend mode="normal" in2="BackgroundImageFix" result="effect1_dropShadow"/>
<feBlend mode="normal" in="SourceGraphic" in2="effect1_dropShadow" result="shape"/>
</filter>
<filter id="filter28_d" x="1372" y="13" width="65" height="66" filterUnits="userSpaceOnUse" color-interpolation-filters="sRGB">
<feFlood flood-opacity="0" result="BackgroundImageFix"/>
<feColorMatrix in="SourceAlpha" type="matrix" values="0 0 0 0 0 0 0 0 0 0 0 0 0 0 0 0 0 0 127 0"/>
<feOffset dx="4" dy="4"/>
<feGaussianBlur stdDeviation="9.5"/>
<feColorMatrix type="matrix" values="0 0 0 0 0 0 0 0 0 0 0 0 0 0 0 0 0 0 0.45 0"/>
<feBlend mode="normal" in2="BackgroundImageFix" result="effect1_dropShadow"/>
<feBlend mode="normal" in="SourceGraphic" in2="effect1_dropShadow" result="shape"/>
</filter>
<filter id="filter29_d" x="1275" y="630" width="65" height="66" filterUnits="userSpaceOnUse" color-interpolation-filters="sRGB">
<feFlood flood-opacity="0" result="BackgroundImageFix"/>
<feColorMatrix in="SourceAlpha" type="matrix" values="0 0 0 0 0 0 0 0 0 0 0 0 0 0 0 0 0 0 127 0"/>
<feOffset dx="4" dy="4"/>
<feGaussianBlur stdDeviation="9.5"/>
<feColorMatrix type="matrix" values="0 0 0 0 0 0 0 0 0 0 0 0 0 0 0 0 0 0 0.45 0"/>
<feBlend mode="normal" in2="BackgroundImageFix" result="effect1_dropShadow"/>
<feBlend mode="normal" in="SourceGraphic" in2="effect1_dropShadow" result="shape"/>
</filter>
<filter id="filter30_d" x="30" y="644" width="65" height="66" filterUnits="userSpaceOnUse" color-interpolation-filters="sRGB">
<feFlood flood-opacity="0" result="BackgroundImageFix"/>
<feColorMatrix in="SourceAlpha" type="matrix" values="0 0 0 0 0 0 0 0 0 0 0 0 0 0 0 0 0 0 127 0"/>
<feOffset dx="4" dy="4"/>
<feGaussianBlur stdDeviation="9.5"/>
<feColorMatrix type="matrix" values="0 0 0 0 0 0 0 0 0 0 0 0 0 0 0 0 0 0 0.45 0"/>
<feBlend mode="normal" in2="BackgroundImageFix" result="effect1_dropShadow"/>
<feBlend mode="normal" in="SourceGraphic" in2="effect1_dropShadow" result="shape"/>
</filter>
<filter id="filter31_d" x="418" y="181" width="65" height="66" filterUnits="userSpaceOnUse" color-interpolation-filters="sRGB">
<feFlood flood-opacity="0" result="BackgroundImageFix"/>
<feColorMatrix in="SourceAlpha" type="matrix" values="0 0 0 0 0 0 0 0 0 0 0 0 0 0 0 0 0 0 127 0"/>
<feOffset dx="4" dy="4"/>
<feGaussianBlur stdDeviation="9.5"/>
<feColorMatrix type="matrix" values="0 0 0 0 0 0 0 0 0 0 0 0 0 0 0 0 0 0 0.45 0"/>
<feBlend mode="normal" in2="BackgroundImageFix" result="effect1_dropShadow"/>
<feBlend mode="normal" in="SourceGraphic" in2="effect1_dropShadow" result="shape"/>
</filter>
<clipPath id="clip0">
<rect width="1440" height="1024" fill="white"/>
</clipPath>
</defs>
</svg>
